<?xml version="1.0" encoding="UTF-8"?>
<svg version="1.1" xmlns="http://www.w3.org/2000/svg" width="167" height="75">
<path d="M0 0 C55.11 0 110.22 0 167 0 C167 24.75 167 49.5 167 75 C111.89 75 56.78 75 0 75 C0 50.25 0 25.5 0 0 Z " fill="#151B23" transform="translate(0,0)"/>
<path d="M0 0 C1.32 0 2.64 0 4 0 C4 0.99 4 1.98 4 3 C4.66 3 5.32 3 6 3 C6.33 2.01 6.66 1.02 7 0 C9.31 0.33 11.62 0.66 14 1 C14 1.66 14 2.32 14 3 C14.556875 2.505 15.11375 2.01 15.6875 1.5 C18.48666796 -0.31567651 19.72896614 -0.65420677 23 0 C26.00369993 2.82282019 27.25324658 4.9289397 27.390625 8.98828125 C27.36428842 10.430209 27.3169454 11.8718864 27.25 13.3125 C27.23195313 14.05306641 27.21390625 14.79363281 27.1953125 15.55664062 C27.14847337 17.3716571 27.07673789 19.18600166 27 21 C25.02 21 23.04 21 21 21 C20.67 16.05 20.34 11.1 20 6 C19.01 6 18.02 6 17 6 C16.67 10.95 16.34 15.9 16 21 C14.02 21 12.04 21 10 21 C9.67 16.05 9.34 11.1 9 6 C8.01 6 7.02 6 6 6 C5.67 10.95 5.34 15.9 5 21 C3.35 21 1.7 21 0 21 C0 14.07 0 7.14 0 0 Z " fill="#E5E6E7" transform="translate(31,22)"/>
<path d="M0 0 C4.88578603 1.85911344 9.43296832 4.24500516 14.0625 6.66015625 C20.24873367 9.48180273 26.50792282 9.21589878 33.1875 9.25 C34.6734668 9.2809375 34.6734668 9.2809375 36.18945312 9.3125 C42.12336512 9.34362872 47.12385199 8.69106997 52.73950195 6.74511719 C55.13945837 5.954031 57.51603318 5.45247692 60 5 C58.53087622 9.1135466 55.79651274 11.12498759 52 13 C48.70829094 14.17338525 45.38178921 15.12385989 42 16 C41.36320312 16.185625 40.72640625 16.37125 40.0703125 16.5625 C28.70523677 18.96417638 17.66443097 16.17383135 8 10.0625 C4.75794897 7.73834364 2.17040221 5.39715129 0 2 C0 1.34 0 0.68 0 0 Z " fill="#EA5C02" transform="translate(25,46)"/>
<path d="M0 0 C3.62532374 0.75527578 5.36306228 2.06340335 8 4.625 C9.72053028 8.06606055 9.38418032 11.85482365 9 15.625 C7.8410416 18.04369578 6.87677904 19.74822096 5 21.625 C1.92541794 22.11768151 -0.9315209 22.17217634 -4 21.625 C-7.33447009 18.45318698 -8.25960397 15.60028888 -8.5625 11.125 C-8.40146732 7.84326506 -7.81900113 5.72370542 -5.875 3.0625 C-3 0.625 -3 0.625 0 0 Z " fill="#F3F3F4" transform="translate(103,21.375)"/>
<path d="M0 0 C2.67165455 1.98542871 4.69415541 3.53337024 5.3984375 6.91064453 C5.49162475 9.0655997 5.43756856 11.15939671 5.3125 13.3125 C5.28994141 14.05306641 5.26738281 14.79363281 5.24414062 15.55664062 C5.1855815 17.37197357 5.09590886 19.18625681 5 21 C2.66666667 21 0.33333333 21 -2 21 C-3.155 21.04125 -4.31 21.0825 -5.5 21.125 C-9 21 -9 21 -11 19 C-11.68196721 11.83934426 -11.68196721 11.83934426 -9.375 9 C-6.44617664 7.76681122 -4.14711179 7.7854242 -1 8 C-1.33 7.01 -1.66 6.02 -2 5 C-2.99 5 -3.98 5 -5 5 C-5.33 5.66 -5.66 6.32 -6 7 C-7.65 7 -9.3 7 -11 7 C-10.61502006 4.76711635 -10.10506663 3.16343698 -8.875 1.25 C-5.82026478 -0.78649015 -3.56817978 -0.49216273 0 0 Z " fill="#E9EAEA" transform="translate(23,22)"/>
<path d="M0 0 C2.20703125 1.4765625 2.20703125 1.4765625 4 4 C4.48251678 6.93385105 4.37775537 9.78705819 4.25 12.75 C4.23195313 13.54277344 4.21390625 14.33554687 4.1953125 15.15234375 C4.14833082 17.10208348 4.07659044 19.05119878 4 21 C2.68 21 1.36 21 0 21 C0 20.34 0 19.68 0 19 C-0.99 19.66 -1.98 20.32 -3 21 C-6.5625 21.3125 -6.5625 21.3125 -10 21 C-12.33043558 17.50434664 -12.58763244 16.1134271 -12 12 C-9.26513033 8.94338095 -7.79836847 8.06025422 -3.6875 7.75 C-2.3571875 7.87375 -2.3571875 7.87375 -1 8 C-1.33 7.01 -1.66 6.02 -2 5 C-4.01508358 4.26676204 -4.01508358 4.26676204 -6 4 C-6.33 4.99 -6.66 5.98 -7 7 C-8.32 7 -9.64 7 -11 7 C-10.6875 4.625 -10.6875 4.625 -10 2 C-6.2794164 -0.48038907 -4.40203429 -0.46337203 0 0 Z " fill="#F1F2F2" transform="translate(72,22)"/>
<path d="M0 0 C2.475 0.495 2.475 0.495 5 1 C7.09189609 1.09268603 7.09189609 1.09268603 9.375 0.3125 C12 0 12 0 14.1484375 0.90625 C17.12383366 4.27083299 16.42382082 7.86537856 16.25 12.1875 C16.23195312 13.03248047 16.21390625 13.87746094 16.1953125 14.74804688 C16.14820586 16.83251573 16.07646233 18.91640144 16 21 C14.35 21 12.7 21 11 21 C10.67 16.05 10.34 11.1 10 6 C8.68 6.33 7.36 6.66 6 7 C5.67 11.62 5.34 16.24 5 21 C3.35 21 1.7 21 0 21 C0 14.07 0 7.14 0 0 Z " fill="#F3F3F4" transform="translate(115,22)"/>
<path d="M0 0 C4.62 0 9.24 0 14 0 C14 6.07526217 13.88525868 6.90162246 10.5 11.375 C9.8503125 12.24898437 9.200625 13.12296875 8.53125 14.0234375 C7.77328125 15.00183594 7.77328125 15.00183594 7 16 C8.423125 15.9690625 8.423125 15.9690625 9.875 15.9375 C13 16 13 16 15 17 C15 18.32 15 19.64 15 21 C10.05 21 5.1 21 0 21 C0 15.64452435 0.45975123 14.75926174 3.5 10.6875 C4.1496875 9.80449219 4.799375 8.92148437 5.46875 8.01171875 C5.9740625 7.34785156 6.479375 6.68398438 7 6 C4.69 5.67 2.38 5.34 0 5 C0 3.35 0 1.7 0 0 Z " fill="#E9E9EA" transform="translate(79,22)"/>
<path d="M0 0 C0.36923077 5.53846154 0.36923077 5.53846154 -1.5 7.875 C-1.995 8.24625 -2.49 8.6175 -3 9 C-2.67 9.66 -2.34 10.32 -2 11 C-5.375 11.1875 -5.375 11.1875 -9 11 C-11.31282587 7.53076119 -11.42478586 6.07794425 -11 2 C-8.647194 -2.55856163 -4.27461231 -0.77083173 0 0 Z " fill="#F0F0F1" transform="translate(71,32)"/>
<path d="M0 0 C1.32 0 2.64 0 4 0 C4.78688445 2.77723925 5.11949924 5.22610077 5.09765625 8.109375 C5.09282227 9.24052734 5.09282227 9.24052734 5.08789062 10.39453125 C5.07951172 11.17183594 5.07113281 11.94914062 5.0625 12.75 C5.05798828 13.54277344 5.05347656 14.33554687 5.04882812 15.15234375 C5.03708565 17.10159508 5.01915146 19.05080738 5 21 C3.35 21 1.7 21 0 21 C0 14.07 0 7.14 0 0 Z " fill="#F4F5F5" transform="translate(31,22)"/>
<path d="M0 0 C0.33 0.99 0.66 1.98 1 3 C1.66 3 2.32 3 3 3 C3 7.29 3 11.58 3 16 C-0.3 15.67 -3.6 15.34 -7 15 C-5.9747661 12.00973447 -4.9653774 9.95803321 -2.9375 7.5 C-0.90815227 4.8814868 -0.37100996 3.24633712 0 0 Z " fill="#232930" transform="translate(93,23)"/>
<path d="M0 0 C3.875 0.875 3.875 0.875 5 2 C5.36090226 9.45864662 5.36090226 9.45864662 3 13 C1.0625 12.625 1.0625 12.625 -1 12 C-2.50934217 8.98131566 -2.17510672 6.32702771 -2 3 C-1.34 2.01 -0.68 1.02 0 0 Z " fill="#252A32" transform="translate(102,26)"/>
<path d="M0 0 C2.09375 -0.36328125 2.09375 -0.36328125 4.5 -0.3125 C5.69109375 -0.30669922 5.69109375 -0.30669922 6.90625 -0.30078125 C9 0 9 0 11 2 C10.78489578 6.83984486 9.35434147 9.54401182 6 13 C5.34 13 4.68 13 4 13 C4.66 10.03 5.32 7.06 6 4 C3.36 3.67 0.72 3.34 -2 3 C-1.34 2.01 -0.68 1.02 0 0 Z " fill="#EC5D02" transform="translate(82,45)"/>
<path d="M0 0 C2.97 0.33 5.94 0.66 9 1 C10.2077558 4.62326739 9.54311128 5.64146369 8 9 C5 9 5 9 3 8 C3.33 7.360625 3.66 6.72125 4 6.0625 C5.07271225 4.23205433 5.07271225 4.23205433 5 3 C3.35 2.67 1.7 2.34 0 2 C0 1.34 0 0.68 0 0 Z " fill="#452819" transform="translate(79,47)"/>
<path d="M0 0 C1.79133978 -0.05391993 3.58313899 -0.09275571 5.375 -0.125 C6.37273437 -0.14820313 7.37046875 -0.17140625 8.3984375 -0.1953125 C11 0 11 0 13 2 C12.01 3.485 12.01 3.485 11 5 C10.67 4.67 10.34 4.34 10 4 C7.67182036 3.63239269 5.3381615 3.29758419 3 3 C3 2.34 3 1.68 3 1 C2.01 0.67 1.02 0.34 0 0 Z " fill="#352F2E" transform="translate(81,42)"/>
<path d="M0 0 C1.99954746 -0.04254356 4.00041636 -0.04080783 6 0 C7 1 7 1 7.09765625 2.84765625 C7.06510417 4.8984375 7.03255208 6.94921875 7 9 C6.34 9 5.68 9 5 9 C5 6.69 5 4.38 5 2 C3.68 2 2.36 2 1 2 C1 4.31 1 6.62 1 9 C0.67 9 0.34 9 0 9 C0 6.03 0 3.06 0 0 Z " fill="#D4E5E9" transform="translate(144,33)"/>
<path d="M0 0 C1.32 0 2.64 0 4 0 C4 1.65 4 3.3 4 5 C2.02 5.99 2.02 5.99 0 7 C-0.66 6.34 -1.32 5.68 -2 5 C-1.46428571 1.46428571 -1.46428571 1.46428571 0 0 Z " fill="#33383F" transform="translate(67,33)"/>
<path d="M0 0 C0.99 0 1.98 0 3 0 C3 1.65 3 3.3 3 5 C1.35 5.33 -0.3 5.66 -2 6 C-1.125 1.125 -1.125 1.125 0 0 Z " fill="#1C2129" transform="translate(19,33)"/>
<path d="M0 0 C0.33 0.99 0.66 1.98 1 3 C1.66 3 2.32 3 3 3 C2.67 5.97 2.34 8.94 2 12 C1.67 12 1.34 12 1 12 C0.67 10.35 0.34 8.7 0 7 C-0.99 7 -1.98 7 -3 7 C-2.34 6.34 -1.68 5.68 -1 5 C-0.35232207 2.42938689 -0.35232207 2.42938689 0 0 Z " fill="#383D44" transform="translate(93,23)"/>
<path d="M0 0 C1.65 0.33 3.3 0.66 5 1 C5 1.99 5 2.98 5 4 C3.02 4 1.04 4 -1 4 C-0.67 2.68 -0.34 1.36 0 0 Z " fill="#2B3037" transform="translate(66,26)"/>
<path d="M0 0 C1.32 0.33 2.64 0.66 4 1 C4 1.99 4 2.98 4 4 C2.02 4 0.04 4 -2 4 C-1.34 2.68 -0.68 1.36 0 0 Z " fill="#1E242B" transform="translate(18,26)"/>
</svg>
